<svg xmlns="http://www.w3.org/2000/svg" viewBox="0 0 61.23 52.82"><defs><style>.cls-1{fill:#ff5a5f;}.cls-2{fill:snow;}</style></defs><title>add</title><g id="Layer_2" data-name="Layer 2"><g id="Layer_1-2" data-name="Layer 1"><path class="cls-1" d="M45.11,19.43,32.92,1.17A2.76,2.76,0,0,0,30.61,0,2.72,2.72,0,0,0,28.3,1.2L16.11,19.43H2.78A2.79,2.79,0,0,0,0,22.21,2.34,2.34,0,0,0,.11,23l7.07,25.8a5.53,5.53,0,0,0,5.34,4.06H48.7a5.59,5.59,0,0,0,5.37-4.06L61.14,23l.08-.75a2.79,2.79,0,0,0-2.78-2.78Zm-22.85,0L30.61,7.18,39,19.43Z"/><path class="cls-2" d="M40.35,37.31H32.18v8.17H29.45V37.31H21.28V34.59h8.17V26.41h2.72v8.17h8.17Z"/></g></g></svg>