<svg xmlns="http://www.w3.org/2000/svg" viewBox="0 0 61 52.63"><defs><style>.cls-1{fill:#ff5a5f;}</style></defs><title>basket</title><g id="Layer_2" data-name="Layer 2"><g id="Layer_1-2" data-name="Layer 1"><path class="cls-1" d="M44.95,19.35,32.8,1.16A2.75,2.75,0,0,0,30.5,0a2.71,2.71,0,0,0-2.3,1.19L16.05,19.35H2.77A2.78,2.78,0,0,0,0,22.13a2.34,2.34,0,0,0,.11.75l7,25.7a5.51,5.51,0,0,0,5.32,4h36a5.57,5.57,0,0,0,5.35-4l7-25.7.08-.75a2.78,2.78,0,0,0-2.77-2.77Zm-22.76,0L30.5,7.15l8.32,12.2ZM30.5,41.54A5.55,5.55,0,1,1,36,36,5.56,5.56,0,0,1,30.5,41.54Z"/></g></g></svg>