<svg xmlns="http://www.w3.org/2000/svg" viewBox="0 0 61.23 52.82"><defs><style>.cls-1{fill:#ff5a5f;}.cls-2{fill:#fff;}</style></defs><title>remove</title><g id="Layer_2" data-name="Layer 2"><g id="Layer_1-2" data-name="Layer 1"><path class="cls-1" d="M45.11,19.43,32.92,1.17A2.76,2.76,0,0,0,30.61,0,2.72,2.72,0,0,0,28.3,1.2L16.11,19.43H2.78A2.79,2.79,0,0,0,0,22.21,2.34,2.34,0,0,0,.11,23l7.07,25.8a5.53,5.53,0,0,0,5.34,4.06H48.7a5.59,5.59,0,0,0,5.37-4.06L61.14,23l.08-.75a2.79,2.79,0,0,0-2.78-2.78Zm-22.85,0L30.61,7.18,39,19.43Z"/><polygon class="cls-2" points="36 27.82 30.5 33.33 25 27.82 22 30.82 27.5 36.32 22 41.83 25 44.82 30.5 39.32 36 44.82 39 41.83 33.5 36.32 39 30.82 36 27.82"/></g></g></svg>